<?xml version="1.0" standalone="no"?>
<!DOCTYPE svg PUBLIC "-//W3C//DTD SVG 20010904//EN"
 "http://www.w3.org/TR/2001/REC-SVG-20010904/DTD/svg10.dtd">
<svg version="1.0" xmlns="http://www.w3.org/2000/svg"
 width="920.000000pt" height="512.000000pt" viewBox="0 0 920.000000 512.000000"
 preserveAspectRatio="xMidYMid meet">

<g transform="translate(0.000000,512.000000) scale(0.100000,-0.100000)"
fill="#000000" stroke="none">
<path d="M6012 5109 c-69 -12 -172 -53 -242 -97 -64 -40 -550 -519 -550 -542
0 -8 -658 -674 -1463 -1480 -1355 -1357 -1465 -1469 -1480 -1515 -9 -27 -37
-183 -62 -345 -104 -667 -145 -918 -156 -966 -11 -47 -10 -55 11 -91 20 -36
27 -41 93 -57 l72 -17 565 75 c311 41 610 80 665 87 l100 12 1477 1475 c1388
1387 1477 1478 1488 1521 10 41 36 71 260 296 274 275 303 315 340 460 45 176
11 364 -96 525 -26 40 -140 162 -296 316 -229 227 -260 255 -328 288 -123 60
-258 78 -398 55z m268 -352 c49 -18 81 -46 282 -246 264 -263 283 -291 283
-421 0 -125 -23 -160 -240 -379 l-185 -186 -415 415 -415 415 182 182 c109
109 201 192 230 208 88 48 170 52 278 12z m-522 -1070 l412 -412 -1198 -1198
-1197 -1197 -415 415 -415 415 1195 1195 c657 657 1197 1195 1200 1195 3 0
191 -186 418 -413z m-2273 -3096 l-60 -59 -493 -82 c-271 -45 -495 -80 -497
-78 -2 1 34 225 79 496 l82 492 59 60 60 60 415 -415 415 -415 -60 -59z"/>
</g>
</svg>
